<svg width="50" height="50" viewBox="0 0 50 50" fill="none" xmlns="http://www.w3.org/2000/svg">
<path d="M25 18.4823L34.4687 14.5764L11.0313 4.90049L2.95 8.23546C2.54206 8.40394 2.15914 8.63087 1.8125 8.90955L25 18.479V18.4823ZM0.109379 11.6833C0.0362578 12.0265 -0.000417134 12.3769 3.57868e-06 12.7283V37.389C-0.000152936 38.3561 0.280521 39.3011 0.8058 40.1019C1.33108 40.9028 2.07686 41.5228 2.94688 41.8819L20.9375 49.3066C21.75 49.642 22.5875 49.8742 23.4375 50V21.3109L0.109379 11.6833ZM26.5625 50C27.4125 49.871 28.25 49.6452 29.0625 49.3066L47.0531 41.8787C47.9222 41.52 48.6672 40.901 49.1924 40.1014C49.7176 39.3018 49.9989 38.3583 50 37.3923V12.7283C50 12.3735 49.9625 12.0187 49.8906 11.6833L26.5625 21.3109V50ZM48.1906 8.90955L38.6719 12.838L15.2344 3.16204L20.9375 0.807568C23.5454 -0.269189 26.4546 -0.269189 29.0625 0.807568L47.0531 8.23546C47.461 8.40402 47.8439 8.63094 48.1906 8.90955Z" fill="white"/>
</svg>
