<svg width="288" height="139" viewBox="0 0 288 139" fill="none" xmlns="http://www.w3.org/2000/svg">
<mask id="path-1-outside-1_125_710" maskUnits="userSpaceOnUse" x="96.875" y="58.625" width="48" height="47" fill="black">
<rect fill="white" x="96.875" y="58.625" width="48" height="47"/>
<path fill-rule="evenodd" clip-rule="evenodd" d="M143.671 99.2812C144.355 97.875 122.296 59.625 120.776 59.625C119.255 59.625 97.492 97.6639 97.8801 99.2812C98.2683 100.899 107.443 104.625 120.943 104.625C134.443 104.625 142.987 100.688 143.671 99.2812ZM139.497 96.8414C139.942 95.6812 121.932 64.125 120.943 64.125C119.953 64.125 108.882 98.3246 109.135 99.6589C109.387 100.993 115.915 101.25 124.702 101.25C133.49 101.25 139.052 98.0016 139.497 96.8414Z"/>
</mask>
<path fill-rule="evenodd" clip-rule="evenodd" d="M143.671 99.2812C144.355 97.875 122.296 59.625 120.776 59.625C119.255 59.625 97.492 97.6639 97.8801 99.2812C98.2683 100.899 107.443 104.625 120.943 104.625C134.443 104.625 142.987 100.688 143.671 99.2812ZM139.497 96.8414C139.942 95.6812 121.932 64.125 120.943 64.125C119.953 64.125 108.882 98.3246 109.135 99.6589C109.387 100.993 115.915 101.25 124.702 101.25C133.49 101.25 139.052 98.0016 139.497 96.8414Z" fill="#0072BB"/>
<path d="M97.8801 99.2812L96.9077 99.5146L97.8801 99.2812ZM139.497 96.8414L140.431 97.1997V97.1997L139.497 96.8414ZM109.135 99.6589L108.152 99.845V99.845L109.135 99.6589ZM120.776 60.625C120.557 60.625 120.412 60.5465 120.382 60.5301C120.337 60.5055 120.32 60.4885 120.334 60.5009C120.363 60.525 120.429 60.5883 120.538 60.7126C120.75 60.9559 121.042 61.336 121.41 61.8517C122.14 62.8769 123.112 64.3574 124.245 66.1563C126.506 69.7495 129.378 74.5628 132.184 79.4256C134.99 84.2883 137.724 89.1896 139.712 92.9582C140.707 94.8447 141.508 96.4349 142.037 97.5899C142.303 98.1707 142.49 98.62 142.599 98.9328C142.654 99.0921 142.679 99.1871 142.688 99.2316C142.692 99.2541 142.687 99.2376 142.687 99.195C142.687 99.1688 142.685 99.0218 142.772 98.8438L144.57 99.7187C144.678 99.4967 144.687 99.2878 144.687 99.1823C144.686 99.0603 144.67 98.947 144.652 98.856C144.617 98.6732 144.557 98.4736 144.488 98.2755C144.348 97.8735 144.13 97.3569 143.855 96.7571C143.303 95.5512 142.481 93.9223 141.481 92.0252C139.477 88.2264 136.73 83.3016 133.916 78.426C131.103 73.5505 128.217 68.7134 125.937 65.0908C124.798 63.2817 123.803 61.763 123.038 60.6909C122.659 60.158 122.322 59.7149 122.044 59.3972C121.908 59.241 121.764 59.0894 121.62 58.9687C121.548 58.9086 121.454 58.8368 121.342 58.7754C121.244 58.7222 121.042 58.625 120.776 58.625V60.625ZM98.8525 99.0479C98.8852 99.1843 98.8728 99.2812 98.8723 99.2857C98.8703 99.3041 98.8692 99.3008 98.8775 99.2676C98.894 99.2016 98.9293 99.0894 98.9924 98.9219C99.1171 98.5908 99.3189 98.1268 99.5953 97.5378C100.146 96.3646 100.962 94.7626 101.964 92.8707C103.966 89.0905 106.692 84.1946 109.479 79.3449C112.267 74.4949 115.111 69.7013 117.35 66.1244C118.471 64.3338 119.432 62.8608 120.155 61.8411C120.519 61.3282 120.808 60.9505 121.018 60.7091C121.125 60.5857 121.19 60.5233 121.218 60.4999C121.232 60.488 121.215 60.5053 121.169 60.5302C121.138 60.5471 120.993 60.625 120.776 60.625V58.625C120.51 58.625 120.308 58.7215 120.21 58.775C120.098 58.8364 120.004 58.9083 119.932 58.9684C119.788 59.0891 119.645 59.2405 119.509 59.3961C119.234 59.7126 118.9 60.1538 118.524 60.6842C117.767 61.7511 116.782 63.2625 115.655 65.0633C113.397 68.6693 110.54 73.4864 107.745 78.3483C104.95 83.2105 102.213 88.1276 100.196 91.9345C99.189 93.8363 98.356 95.4714 97.7849 96.688C97.5004 97.2939 97.273 97.813 97.1208 98.2168C97.0454 98.4168 96.9804 98.61 96.9372 98.7827C96.9156 98.869 96.8949 98.9684 96.8837 99.0723C96.874 99.1624 96.8629 99.3277 96.9077 99.5146L98.8525 99.0479ZM120.943 103.625C114.281 103.625 108.704 102.705 104.765 101.597C102.793 101.042 101.254 100.446 100.205 99.9086C99.6778 99.6384 99.3017 99.3969 99.0613 99.2006C98.7798 98.9708 98.8202 98.9133 98.8525 99.0479L96.9077 99.5146C97.0371 100.054 97.449 100.466 97.7964 100.75C98.1847 101.067 98.6945 101.382 99.2929 101.688C100.495 102.304 102.166 102.943 104.224 103.522C108.344 104.682 114.104 105.625 120.943 105.625V103.625ZM142.772 98.8438C142.797 98.7923 142.756 98.8885 142.455 99.1124C142.188 99.3113 141.797 99.552 141.274 99.8192C140.233 100.352 138.738 100.955 136.828 101.522C133.013 102.654 127.597 103.625 120.943 103.625V105.625C127.788 105.625 133.395 104.627 137.397 103.439C139.397 102.846 141.01 102.201 142.185 101.6C142.771 101.3 143.265 101.002 143.649 100.717C143.999 100.456 144.374 100.122 144.57 99.7187L142.772 98.8438ZM120.943 65.125C120.664 65.125 120.482 65.003 120.461 64.9895C120.411 64.9574 120.388 64.9335 120.397 64.9417C120.411 64.9556 120.457 65.0038 120.54 65.1065C120.7 65.3057 120.926 65.6185 121.215 66.0442C121.788 66.8899 122.561 68.1115 123.469 69.5956C125.282 72.5601 127.607 76.5311 129.889 80.5426C132.171 84.5543 134.406 88.5972 136.04 91.7054C136.858 93.2615 137.52 94.5721 137.961 95.5233C138.183 96.0018 138.341 96.3705 138.434 96.6259C138.481 96.7562 138.503 96.8317 138.51 96.8646C138.514 96.8815 138.509 96.864 138.506 96.8235C138.505 96.8017 138.496 96.6605 138.564 96.4831L140.431 97.1997C140.513 96.9861 140.508 96.7938 140.503 96.7065C140.497 96.6005 140.479 96.5032 140.462 96.4264C140.427 96.2718 140.373 96.1043 140.312 95.9397C140.19 95.6054 140.005 95.1772 139.776 94.6817C139.313 93.6852 138.633 92.3401 137.81 90.7746C136.162 87.6398 133.916 83.5761 131.627 79.5537C129.339 75.5311 127.003 71.5405 125.175 68.552C124.262 67.0596 123.47 65.8067 122.87 64.9222C122.572 64.4827 122.31 64.1164 122.098 63.8528C121.995 63.7241 121.883 63.595 121.772 63.4894C121.717 63.4379 121.639 63.3687 121.541 63.3063C121.473 63.2624 121.252 63.125 120.943 63.125V65.125ZM110.117 99.4729C110.143 99.6073 110.12 99.6812 110.135 99.5691C110.144 99.5007 110.162 99.3943 110.194 99.2439C110.256 98.9454 110.357 98.5292 110.496 98.0041C110.772 96.9572 111.184 95.5241 111.692 93.8311C112.706 90.4476 114.095 86.056 115.523 81.7033C116.951 77.3498 118.416 73.0443 119.584 69.8312C120.169 68.2222 120.675 66.9004 121.062 65.9869C121.257 65.5262 121.412 65.1929 121.524 64.9844C121.551 64.9342 121.573 64.8962 121.59 64.8687C121.608 64.8399 121.615 64.8306 121.613 64.8341C121.611 64.8363 121.603 64.8459 121.59 64.86C121.578 64.8734 121.554 64.8981 121.518 64.9269C121.476 64.9611 121.27 65.125 120.943 65.125V63.125C120.584 63.125 120.342 63.3056 120.26 63.3726C120.154 63.4579 120.077 63.5498 120.029 63.6122C119.93 63.7408 119.841 63.8925 119.764 64.0344C119.606 64.3275 119.422 64.7303 119.22 65.2073C118.813 66.1693 118.293 67.5298 117.705 69.1479C116.526 72.3889 115.054 76.7167 113.623 81.0798C112.191 85.4438 110.797 89.8523 109.776 93.2566C109.266 94.9574 108.847 96.4151 108.562 97.4938C108.42 98.0316 108.308 98.4869 108.236 98.836C108.2 99.0094 108.17 99.1708 108.152 99.31C108.139 99.4057 108.111 99.6271 108.152 99.845L110.117 99.4729ZM124.702 100.25C120.308 100.25 116.517 100.185 113.801 99.9583C112.436 99.8441 111.394 99.6927 110.698 99.505C110.346 99.41 110.141 99.3206 110.038 99.2578C109.921 99.1858 110.072 99.2358 110.117 99.4729L108.152 99.845C108.26 100.416 108.671 100.765 108.993 100.963C109.33 101.17 109.745 101.319 110.177 101.436C111.051 101.672 112.238 101.835 113.635 101.951C116.442 102.186 120.309 102.25 124.702 102.25V100.25ZM138.564 96.4831C138.589 96.4167 138.585 96.4695 138.408 96.6365C138.252 96.7836 138.015 96.9693 137.689 97.1806C137.039 97.602 136.095 98.0864 134.876 98.5448C132.443 99.4601 128.975 100.25 124.702 100.25V102.25C129.218 102.25 132.924 101.416 135.58 100.417C136.906 99.918 137.985 99.3727 138.777 98.8588C139.173 98.6024 139.513 98.3439 139.78 98.0913C140.027 97.8586 140.294 97.5561 140.431 97.1997L138.564 96.4831Z" fill="#0072BB" mask="url(#path-1-outside-1_125_710)"/>
<path d="M149.262 88.8719L130.526 95.898C130.526 95.898 130.526 95.8981 130.525 95.8981C130.525 95.8982 130.525 95.8982 130.525 95.8983C128.25 96.7501 126.75 98.9345 126.75 101.357V121.635C126.75 123.844 128 125.858 129.967 126.842L148.701 136.209C148.702 136.209 148.702 136.21 148.703 136.21C150.342 137.035 152.274 137.035 153.913 136.21C153.914 136.21 153.914 136.209 153.915 136.209L172.646 126.844C172.647 126.843 172.648 126.843 172.648 126.843C174.631 125.856 175.866 123.828 175.866 121.635V101.357C175.866 98.9306 174.362 96.7573 172.09 95.907L153.36 88.8834C152.039 88.3721 150.58 88.3762 149.263 88.8717C149.262 88.8718 149.262 88.8719 149.262 88.8719ZM138.012 102.46L151.312 97.4724L164.613 102.46L151.312 107.864L138.012 102.46ZM167.109 119.808L155.695 125.515V115.537L167.109 110.9V119.808Z" fill="#0072BB" stroke="white" stroke-width="3"/>
<path d="M139.879 73.9425L145.408 68.9355C146.167 68.2485 147.4 68.777 147.4 69.7825V72.8631C147.4 72.8631 156.38 71.4894 160.309 74.6357C164.546 78.0288 164.245 87.75 164.245 87.75H159.184C159.184 87.75 159.995 80.4906 156.934 77.9143C154.096 75.5258 147.4 76.7159 147.4 76.7159V79.7969C147.4 80.8065 146.164 81.328 145.408 80.6439L139.879 75.6364C139.373 75.179 139.374 74.3993 139.879 73.9425Z" fill="#0072BB"/>
<path d="M125.621 122.933L120.092 127.94C119.333 128.626 118.1 128.098 118.1 127.093V124.012C118.1 124.012 109.12 125.386 105.191 122.239C100.954 118.846 101.255 109.125 101.255 109.125H106.316C106.316 109.125 105.505 116.384 108.566 118.961C111.404 121.349 118.1 120.159 118.1 120.159V117.078C118.1 116.069 119.336 115.547 120.092 116.231L125.621 121.239C126.127 121.696 126.126 122.476 125.621 122.933Z" fill="#0072BB"/>
<path d="M28.1953 38.1406C27.6016 37.5156 27.1172 36.75 26.7422 35.8438C26.3984 34.9062 26.1328 33.9844 25.9453 33.0781C25.7266 32.0469 25.5703 30.9531 25.4766 29.7969C25.3203 27.5469 25.5703 25.5 26.2266 23.6562C26.8828 21.8125 27.7734 20.2344 28.8984 18.9219C30.0234 17.6094 31.2734 16.5938 32.6484 15.875C34.0547 15.1562 35.4141 14.7969 36.7266 14.7969C37.3203 14.7969 37.7891 14.9375 38.1328 15.2188C38.5078 15.5 38.7891 15.8438 38.9766 16.25C39.1641 16.6562 39.2734 17.0781 39.3047 17.5156C39.3672 17.9531 39.3984 18.3125 39.3984 18.5938C39.3984 19.5938 39.3672 20.5781 39.3047 21.5469C39.2734 22.5156 39.1953 23.5469 39.0703 24.6406C38.9766 25.7344 38.8203 26.9062 38.6016 28.1562C38.3828 29.4062 38.1016 30.7969 37.7578 32.3281C37.5703 33.1719 37.3047 34.25 36.9609 35.5625C36.6172 36.875 36.2109 38.3281 35.7422 39.9219C37.1484 39.9531 38.2734 40.0156 39.1172 40.1094C39.9922 40.1719 40.5547 40.2188 40.8047 40.25C41.0234 40.2812 41.1797 40.3906 41.2734 40.5781C41.3984 40.7656 41.3359 41.0625 41.0859 41.4688C40.8359 41.8438 40.4766 42.0625 40.0078 42.125C39.5703 42.1875 39.1328 42.2188 38.6953 42.2188C38.4453 42.2188 37.9766 42.2188 37.2891 42.2188C36.6328 42.2188 35.8516 42.25 34.9453 42.3125C34.2891 44.25 33.5391 46.2031 32.6953 48.1719C31.8828 50.1094 30.9766 51.8594 29.9766 53.4219C28.9766 55.0156 27.8828 56.2969 26.6953 57.2656C25.5078 58.2656 24.2422 58.7656 22.8984 58.7656C20.9609 58.7656 19.3203 58.3906 17.9766 57.6406C16.6641 56.9219 15.6016 56.0625 14.7891 55.0625C13.9453 54.0938 13.3359 53.1094 12.9609 52.1094C12.5859 51.1406 12.3984 50.3906 12.3984 49.8594C12.3984 48.9219 12.6484 47.9688 13.1484 47C13.6484 46.0312 14.4453 45.125 15.5391 44.2812C16.6016 43.4062 17.9922 42.6406 19.7109 41.9844C21.4297 41.3281 23.4922 40.8281 25.8984 40.4844C26.8984 40.3594 27.8516 40.2656 28.7578 40.2031C29.6641 40.1094 30.5234 40.0312 31.3359 39.9688C31.9609 37.625 32.5859 35.2344 33.2109 32.7969C33.8672 30.3594 34.4297 28.1094 34.8984 26.0469C35.0859 25.2031 35.2734 24.2969 35.4609 23.3281C35.6484 22.3281 35.7891 21.3906 35.8828 20.5156C36.0078 19.6406 36.0703 18.9062 36.0703 18.3125C36.1016 17.7188 36.0391 17.3906 35.8828 17.3281C35.7891 17.2969 35.5547 17.4219 35.1797 17.7031C34.8047 17.9531 34.3672 18.3281 33.8672 18.8281C33.3672 19.3281 32.8672 19.9375 32.3672 20.6562C31.8984 21.3438 31.5078 22.0938 31.1953 22.9062C30.6328 24.5 30.1953 26.0625 29.8828 27.5938C29.6328 28.9062 29.4766 30.2969 29.4141 31.7656C29.3516 33.2344 29.5859 34.5625 30.1172 35.75C30.0547 36.1875 29.9609 36.5469 29.8359 36.8281C29.7422 36.9844 29.6641 37.125 29.6016 37.25C29.5078 37.3438 29.3984 37.4531 29.2734 37.5781C29.1484 37.6719 28.9922 37.7812 28.8047 37.9062C28.6484 38 28.4453 38.0781 28.1953 38.1406ZM27.6328 51.2188C27.9766 50.5 28.3984 49.3906 28.8984 47.8906C29.3984 46.3906 29.9297 44.6562 30.4922 42.6875C28.9609 42.875 27.4141 43.1406 25.8516 43.4844C24.2891 43.7969 22.8672 44.2344 21.5859 44.7969C20.3359 45.3281 19.3047 45.9844 18.4922 46.7656C17.7109 47.5469 17.3203 48.4688 17.3203 49.5312C17.3203 50.6562 17.5391 51.6406 17.9766 52.4844C18.4453 53.3281 18.9922 54.0312 19.6172 54.5938C20.2734 55.1562 20.9297 55.5781 21.5859 55.8594C22.2734 56.1719 22.8516 56.3281 23.3203 56.3281C23.7891 56.3281 24.2266 56.1406 24.6328 55.7656C25.0703 55.4219 25.4609 54.9844 25.8047 54.4531C26.1797 53.9531 26.5078 53.4062 26.7891 52.8125C27.1016 52.2188 27.3828 51.6875 27.6328 51.2188ZM55.7109 51.1719C54.9922 51.1719 54.3672 51.0312 53.8359 50.75C53.3359 50.5 52.9297 50.1562 52.6172 49.7188C52.3047 49.2812 52.1016 48.7812 52.0078 48.2188C51.9141 47.625 51.9453 47 52.1016 46.3438C52.1953 45.9062 52.3516 45.3281 52.5703 44.6094C52.7891 43.8594 53.0078 43.0625 53.2266 42.2188C53.4766 41.3438 53.6953 40.4844 53.8828 39.6406C54.1016 38.7656 54.2422 37.9844 54.3047 37.2969C54.3672 36.5781 54.3359 36 54.2109 35.5625C54.0859 35.0938 53.8203 34.8594 53.4141 34.8594C52.9141 34.8594 52.3984 35.0312 51.8672 35.375C51.3359 35.6875 50.7891 36.125 50.2266 36.6875C49.6953 37.25 49.1484 37.9062 48.5859 38.6562C48.0547 39.375 47.5234 40.125 46.9922 40.9062C46.7109 41.9688 46.4766 42.9062 46.2891 43.7188C46.1016 44.5 45.9297 45.2188 45.7734 45.875C45.6484 46.5 45.5234 47.0625 45.3984 47.5625C45.2734 48.0312 45.1641 48.4844 45.0703 48.9219C44.9766 49.2344 44.6953 49.5469 44.2266 49.8594C43.7578 50.1406 43.2578 50.375 42.7266 50.5625C42.1953 50.75 41.7422 50.8438 41.3672 50.8438C40.9609 50.8438 40.7891 50.7031 40.8516 50.4219C40.8828 50.2344 40.9922 49.8125 41.1797 49.1562C41.3359 48.5 41.5391 47.7344 41.7891 46.8594C42.0078 45.9531 42.2422 45 42.4922 44C42.7422 43 42.9766 42.0469 43.1953 41.1406C43.3516 40.4219 43.5234 39.625 43.7109 38.75C43.8672 38 44.0547 37.125 44.2734 36.125C44.5234 35.125 44.8047 34.0312 45.1172 32.8438C45.3359 32.6562 45.5547 32.5156 45.7734 32.4219C46.0234 32.2969 46.2734 32.2031 46.5234 32.1406C46.7734 32.0469 47.0391 31.9844 47.3203 31.9531C47.5703 31.9531 47.8203 31.9688 48.0703 32C48.2891 32.0312 48.5078 32.0938 48.7266 32.1875C48.9766 32.25 49.1953 32.3594 49.3828 32.5156C49.2891 32.7344 49.1797 33.0469 49.0547 33.4531C48.9297 33.8281 48.8047 34.2344 48.6797 34.6719C48.5547 35.1719 48.3984 35.6875 48.2109 36.2188C48.6172 35.6562 49.0703 35.0938 49.5703 34.5312C50.1016 33.9375 50.6641 33.4062 51.2578 32.9375C51.8828 32.4688 52.5391 32.0938 53.2266 31.8125C53.9141 31.5 54.6172 31.3438 55.3359 31.3438C55.9297 31.3438 56.4609 31.5156 56.9297 31.8594C57.3984 32.2031 57.7578 32.6875 58.0078 33.3125C58.2891 33.9062 58.4453 34.625 58.4766 35.4688C58.5391 36.3125 58.4297 37.2344 58.1484 38.2344L57.6328 40.2969C57.4766 40.9531 57.2734 41.7344 57.0234 42.6406C56.8047 43.5156 56.5234 44.4844 56.1797 45.5469C55.9922 46.2344 55.9141 46.8281 55.9453 47.3281C56.0078 47.8281 56.3203 48.0781 56.8828 48.0781C57.4453 48.0781 58.1484 47.7344 58.9922 47.0469C59.8672 46.3594 60.7422 45.5312 61.6172 44.5625C62.4922 43.5938 63.3203 42.6094 64.1016 41.6094C64.8828 40.5781 65.4766 39.75 65.8828 39.125C66.1641 38.7188 66.4297 38.4531 66.6797 38.3281C66.9297 38.2031 67.1172 38.1875 67.2422 38.2812C67.3984 38.375 67.4766 38.5938 67.4766 38.9375C67.4766 39.25 67.3516 39.6562 67.1016 40.1562C66.8828 40.5938 66.5391 41.1719 66.0703 41.8906C65.6328 42.6094 65.1016 43.375 64.4766 44.1875C63.8516 45 63.1797 45.8281 62.4609 46.6719C61.7422 47.4844 60.9922 48.2344 60.2109 48.9219C59.4297 49.5781 58.6484 50.1094 57.8672 50.5156C57.1172 50.9531 56.3984 51.1719 55.7109 51.1719ZM81.2578 38.1406C81.3828 37.9531 81.5391 37.8438 81.7266 37.8125C81.9453 37.75 82.1172 37.7656 82.2422 37.8594C82.3672 37.9531 82.4297 38.1094 82.4297 38.3281C82.4609 38.5469 82.3828 38.8438 82.1953 39.2188C81.5703 40.4062 80.7422 41.6875 79.7109 43.0625C78.7109 44.4375 77.6484 45.7344 76.5234 46.9531C75.3984 48.1406 74.3047 49.125 73.2422 49.9062C72.1797 50.6875 71.2891 51.0781 70.5703 51.0781C69.5391 51.0781 68.6797 50.875 67.9922 50.4688C67.3047 50.0625 66.7578 49.5625 66.3516 48.9688C65.9766 48.375 65.7109 47.7344 65.5547 47.0469C65.3984 46.3281 65.3516 45.6719 65.4141 45.0781C65.4453 44.5781 65.5547 43.6875 65.7422 42.4062C65.9297 41.0938 66.1797 39.5938 66.4922 37.9062C66.8047 36.1875 67.1484 34.3594 67.5234 32.4219C67.9297 30.4531 68.3516 28.5625 68.7891 26.75C68.2578 26.8125 67.7266 26.875 67.1953 26.9375C66.6641 27 66.1797 27.0312 65.7422 27.0312C64.7422 27.0312 63.8047 26.9219 62.9297 26.7031C62.0234 26.4531 61.3516 26.2188 60.9141 26C60.6641 25.875 60.5547 25.7031 60.5859 25.4844C60.6172 25.2344 60.7109 25 60.8672 24.7812C61.0234 24.5312 61.2266 24.3281 61.4766 24.1719C61.6953 23.9844 61.8984 23.8906 62.0859 23.8906C62.6797 23.9531 63.3203 24.0156 64.0078 24.0781C64.6953 24.1094 65.4453 24.1094 66.2578 24.0781C66.8516 24.0469 67.4141 24 67.9453 23.9375C68.5078 23.875 69.0547 23.7969 69.5859 23.7031C69.9922 22.2031 70.3828 20.9062 70.7578 19.8125C71.1641 18.6875 71.5234 17.9062 71.8359 17.4688C71.9297 17.3125 72.1328 17.1875 72.4453 17.0938C72.7891 16.9688 73.1484 16.8906 73.5234 16.8594C73.8984 16.7969 74.2578 16.7969 74.6016 16.8594C74.9453 16.8906 75.1953 17 75.3516 17.1875C75.5078 17.4375 75.5703 18.0781 75.5391 19.1094C75.5078 20.1406 75.3359 21.4531 75.0234 23.0469C76.3359 23.0469 77.4922 23.125 78.4922 23.2812C79.5234 23.4062 80.3984 23.5625 81.1172 23.75C81.8359 23.9062 82.4141 24.0781 82.8516 24.2656C83.2891 24.4219 83.6172 24.5312 83.8359 24.5938C84.0547 24.6562 84.1641 24.8125 84.1641 25.0625C84.1953 25.3125 84.1484 25.5781 84.0234 25.8594C83.9297 26.1094 83.7578 26.3281 83.5078 26.5156C83.2578 26.7031 82.9766 26.7656 82.6641 26.7031C82.3516 26.6719 81.9922 26.6094 81.5859 26.5156C81.2109 26.4219 80.7422 26.3438 80.1797 26.2812C79.6484 26.2188 79.0078 26.1562 78.2578 26.0938C77.5078 26.0312 76.6328 26 75.6328 26C75.4453 26 75.2266 26.0156 74.9766 26.0469C74.7578 26.0469 74.5234 26.0469 74.2734 26.0469C74.1484 26.5469 74.0234 27.0469 73.8984 27.5469C73.8047 28.0156 73.6641 28.5156 73.4766 29.0469C73.0703 30.2969 72.6016 31.6562 72.0703 33.125C71.6016 34.4062 71.0391 35.875 70.3828 37.5312C69.7266 39.1875 68.9922 40.9531 68.1797 42.8281C67.9922 44.1719 68.0078 45.2031 68.2266 45.9219C68.4766 46.6094 68.7734 47.1094 69.1172 47.4219C69.5234 47.7656 70.0234 47.9531 70.6172 47.9844C71.0859 48.0469 71.6484 47.8906 72.3047 47.5156C72.9922 47.1094 73.6953 46.5781 74.4141 45.9219C75.1328 45.2656 75.8516 44.5469 76.5703 43.7656C77.3203 42.9844 78.0078 42.2188 78.6328 41.4688C79.2578 40.7188 79.8047 40.0469 80.2734 39.4531C80.7422 38.8281 81.0703 38.3906 81.2578 38.1406ZM99.6797 40.25C98.7422 41.625 97.6797 42.9688 96.4922 44.2812C95.3047 45.5625 94.0391 46.7188 92.6953 47.75C91.3828 48.75 90.0234 49.5625 88.6172 50.1875C87.2422 50.8125 85.8984 51.125 84.5859 51.125C83.8984 51.125 83.1484 50.9531 82.3359 50.6094C81.5547 50.2969 80.8359 49.7969 80.1797 49.1094C79.5234 48.4219 78.9922 47.5312 78.5859 46.4375C78.2109 45.3438 78.1016 44.0156 78.2578 42.4531C78.3828 41.1719 78.7734 39.8281 79.4297 38.4219C80.1172 36.9844 80.9453 35.6719 81.9141 34.4844C82.9141 33.2969 84.0234 32.3125 85.2422 31.5312C86.4922 30.75 87.7422 30.3594 88.9922 30.3594C90.1797 30.3594 91.0391 30.6562 91.5703 31.25C92.1016 31.8438 92.3359 32.5781 92.2734 33.4531C92.1797 34.4219 91.8984 35.3125 91.4297 36.125C90.9922 36.9375 90.4609 37.6719 89.8359 38.3281C89.2109 38.9844 88.5391 39.5781 87.8203 40.1094C87.1328 40.6406 86.4766 41.125 85.8516 41.5625C85.1641 42.0312 84.5078 42.4844 83.8828 42.9219C83.2578 43.3281 82.7109 43.7031 82.2422 44.0469C82.2734 44.8281 82.4141 45.4844 82.6641 46.0156C82.9141 46.5469 83.2266 46.9844 83.6016 47.3281C83.9766 47.6406 84.3984 47.875 84.8672 48.0312C85.3672 48.1562 85.8672 48.2188 86.3672 48.2188C87.4297 48.2188 88.5391 47.8906 89.6953 47.2344C90.8516 46.5469 91.9766 45.7344 93.0703 44.7969C94.1953 43.8281 95.2266 42.8281 96.1641 41.7969C97.1328 40.7656 97.9297 39.875 98.5547 39.125C98.7734 38.875 98.9922 38.7344 99.2109 38.7031C99.4609 38.6406 99.6484 38.6719 99.7734 38.7969C99.9297 38.8906 100.008 39.0781 100.008 39.3594C100.008 39.6094 99.8984 39.9062 99.6797 40.25ZM87.6797 33.0312C87.3047 33.0312 86.8516 33.2188 86.3203 33.5938C85.8203 33.9688 85.3203 34.5156 84.8203 35.2344C84.3203 35.9219 83.8516 36.7812 83.4141 37.8125C82.9766 38.8125 82.6484 39.9688 82.4297 41.2812C82.8047 41 83.2109 40.7188 83.6484 40.4375C84.0859 40.125 84.5234 39.7969 84.9609 39.4531C86.3047 38.4219 87.2422 37.5156 87.7734 36.7344C88.3047 35.9531 88.6016 35.2812 88.6641 34.7188C88.7266 34.125 88.6641 33.7031 88.4766 33.4531C88.2891 33.1719 88.0234 33.0312 87.6797 33.0312ZM94.5234 49.7656C94.3047 50.1094 94.0703 50.3281 93.8203 50.4219C93.5391 50.5469 93.3047 50.5625 93.1172 50.4688C92.8984 50.4062 92.7578 50.25 92.6953 50C92.6328 49.75 92.6953 49.4375 92.8828 49.0625C92.9766 48.875 93.1953 48.4531 93.5391 47.7969C93.8516 47.1406 94.2422 46.3594 94.7109 45.4531C95.1484 44.5156 95.6328 43.5156 96.1641 42.4531C96.6953 41.3594 97.1953 40.3281 97.6641 39.3594C98.1641 38.3906 98.6172 37.5312 99.0234 36.7812C99.4297 36 99.7266 35.4375 99.9141 35.0938C99.5703 34.7812 99.3359 34.5625 99.2109 34.4375C99.0859 34.2812 98.9922 33.9688 98.9297 33.5C98.8672 33.0938 98.9609 32.5625 99.2109 31.9062C99.4609 31.25 99.7891 30.625 100.195 30.0312C100.602 29.4062 101.055 28.875 101.555 28.4375C102.055 28 102.539 27.7812 103.008 27.7812C103.883 27.7812 104.492 28.0625 104.836 28.625C105.211 29.1875 105.43 29.7656 105.492 30.3594C105.555 30.7656 105.523 31.2812 105.398 31.9062C105.273 32.5312 105.039 33.0938 104.695 33.5938C104.789 33.6562 104.914 33.7344 105.07 33.8281C105.227 33.8906 105.477 33.9219 105.82 33.9219C106.32 33.9219 106.664 33.8906 106.852 33.8281C107.07 33.7656 107.398 33.7344 107.836 33.7344C108.367 33.7344 108.805 33.875 109.148 34.1562C109.492 34.4062 109.773 34.7344 109.992 35.1406C110.211 35.5156 110.367 35.9375 110.461 36.4062C110.586 36.8438 110.664 37.25 110.695 37.625C110.789 38.4062 110.586 39.2188 110.086 40.0625C109.586 40.9062 108.977 41.8281 108.258 42.8281C107.82 43.4531 107.383 44.1562 106.945 44.9375C106.508 45.7188 106.32 46.4219 106.383 47.0469C106.445 47.4531 106.555 47.7812 106.711 48.0312C106.867 48.2812 107.305 48.4062 108.023 48.4062C108.555 48.4062 109.133 48.2188 109.758 47.8438C110.414 47.4375 111.07 46.9375 111.727 46.3438C112.414 45.7188 113.086 45.0469 113.742 44.3281C114.398 43.5781 115.008 42.8594 115.57 42.1719C116.133 41.4531 116.602 40.8125 116.977 40.25C117.383 39.6875 117.68 39.2812 117.867 39.0312C118.023 38.7812 118.227 38.6094 118.477 38.5156C118.727 38.4219 118.945 38.4219 119.133 38.5156C119.32 38.6094 119.43 38.7969 119.461 39.0781C119.523 39.3594 119.414 39.7344 119.133 40.2031C118.945 40.5156 118.617 41.0156 118.148 41.7031C117.711 42.3906 117.164 43.1562 116.508 44C115.883 44.8438 115.18 45.7188 114.398 46.625C113.617 47.5 112.789 48.3125 111.914 49.0625C111.07 49.7812 110.211 50.375 109.336 50.8438C108.492 51.3125 107.68 51.5469 106.898 51.5469C106.086 51.5469 105.414 51.3906 104.883 51.0781C104.352 50.7656 103.914 50.3906 103.57 49.9531C103.258 49.4844 103.023 48.9844 102.867 48.4531C102.742 47.8906 102.695 47.375 102.727 46.9062C102.758 46.5312 102.852 46.1406 103.008 45.7344C103.195 45.2969 103.398 44.8594 103.617 44.4219C103.867 43.9531 104.117 43.5 104.367 43.0625C104.648 42.5938 104.898 42.1406 105.117 41.7031C105.648 40.7969 106.07 40.0312 106.383 39.4062C106.727 38.75 106.898 38.2031 106.898 37.7656C106.898 37.4844 106.836 37.2344 106.711 37.0156C106.586 36.7969 106.383 36.6875 106.102 36.6875C105.914 36.6875 105.773 36.7031 105.68 36.7344C105.617 36.7344 105.539 36.7344 105.445 36.7344C105.383 36.7344 105.273 36.75 105.117 36.7812C104.992 36.7812 104.789 36.7812 104.508 36.7812C104.102 36.7812 103.758 36.7188 103.477 36.5938C103.195 36.4688 102.93 36.375 102.68 36.3125C102.555 36.5312 102.273 37 101.836 37.7188C101.398 38.4375 100.883 39.2812 100.289 40.25C99.7266 41.2188 99.1172 42.2344 98.4609 43.2969C97.8359 44.3594 97.2422 45.3594 96.6797 46.2969C96.1172 47.2031 95.6484 47.9844 95.2734 48.6406C94.8672 49.2656 94.6172 49.6406 94.5234 49.7656ZM123.773 48.4062C124.742 48.4062 125.805 48.0312 126.961 47.2812C128.148 46.5 129.289 45.5938 130.383 44.5625C131.508 43.5312 132.523 42.4844 133.43 41.4219C134.367 40.3281 135.07 39.4531 135.539 38.7969C135.82 38.3906 136.086 38.1562 136.336 38.0938C136.586 38 136.773 38.0312 136.898 38.1875C137.023 38.3438 137.07 38.5938 137.039 38.9375C137.008 39.25 136.867 39.6094 136.617 40.0156C136.398 40.3906 136.023 40.9375 135.492 41.6562C134.992 42.3438 134.383 43.1094 133.664 43.9531C132.977 44.7656 132.18 45.6094 131.273 46.4844C130.398 47.3281 129.477 48.1094 128.508 48.8281C127.539 49.5156 126.539 50.0781 125.508 50.5156C124.477 50.9844 123.461 51.2188 122.461 51.2188C121.086 51.2188 119.93 50.9531 118.992 50.4219C118.086 49.9219 117.352 49.2656 116.789 48.4531C116.258 47.6406 115.883 46.75 115.664 45.7812C115.445 44.7812 115.336 43.7969 115.336 42.8281C115.336 41.8594 115.555 40.6562 115.992 39.2188C116.43 37.7812 117.07 36.4062 117.914 35.0938C118.789 33.75 119.883 32.6094 121.195 31.6719C122.508 30.7031 124.055 30.2188 125.836 30.2188C126.836 30.2188 127.68 30.5625 128.367 31.25C129.086 31.9375 129.43 32.875 129.398 34.0625C129.398 34.625 129.305 35.1875 129.117 35.75C128.93 36.2812 128.68 36.7656 128.367 37.2031C128.055 37.6094 127.68 37.9375 127.242 38.1875C126.836 38.4375 126.383 38.5625 125.883 38.5625C125.477 38.5625 125.164 38.4219 124.945 38.1406C124.758 37.8281 124.633 37.4844 124.57 37.1094C124.539 36.7031 124.539 36.3125 124.57 35.9375C124.633 35.5625 124.695 35.3125 124.758 35.1875C124.914 34.9688 125.086 34.8125 125.273 34.7188C125.461 34.625 125.68 34.5156 125.93 34.3906C126.117 34.2969 126.258 34.1562 126.352 33.9688C126.477 33.7812 126.539 33.5781 126.539 33.3594C126.539 33.1406 126.477 32.9531 126.352 32.7969C126.227 32.6406 126.023 32.5625 125.742 32.5625C125.461 32.5625 124.945 32.7969 124.195 33.2656C123.477 33.7031 122.727 34.375 121.945 35.2812C121.195 36.1562 120.523 37.2656 119.93 38.6094C119.336 39.9531 119.023 41.5156 118.992 43.2969C118.961 44.3281 119.102 45.1719 119.414 45.8281C119.727 46.4844 120.117 47 120.586 47.375C121.055 47.75 121.57 48.0156 122.133 48.1719C122.695 48.3281 123.242 48.4062 123.773 48.4062ZM157.289 40.6719C156.852 41.2969 156.289 42.0781 155.602 43.0156C154.914 43.9219 154.195 44.8438 153.445 45.7812C152.727 46.6875 152.008 47.5312 151.289 48.3125C150.602 49.0625 150.023 49.5938 149.555 49.9062C149.242 50.0938 148.883 50.25 148.477 50.375C148.07 50.5 147.648 50.5781 147.211 50.6094C146.805 50.6406 146.414 50.6094 146.039 50.5156C145.664 50.4531 145.336 50.3281 145.055 50.1406C144.773 49.9219 144.539 49.6094 144.352 49.2031C144.195 48.8594 144.039 48.4062 143.883 47.8438C143.758 47.2812 143.711 46.5781 143.742 45.7344C142.992 46.9844 142.164 47.9531 141.258 48.6406C140.352 49.2969 139.492 49.7812 138.68 50.0938C137.742 50.4375 136.805 50.6406 135.867 50.7031C135.43 50.7031 134.961 50.5469 134.461 50.2344C133.961 49.9531 133.539 49.5 133.195 48.875C132.852 48.2188 132.633 47.3906 132.539 46.3906C132.445 45.3594 132.57 44.1406 132.914 42.7344C133.352 40.8281 134.039 39.0938 134.977 37.5312C135.945 35.9688 136.992 34.6406 138.117 33.5469C139.242 32.4219 140.352 31.5781 141.445 31.0156C142.539 30.4531 143.445 30.2031 144.164 30.2656C145.008 30.4219 145.695 30.6719 146.227 31.0156C146.664 31.3281 146.945 31.7969 147.07 32.4219C147.227 33.0156 146.977 33.8125 146.32 34.8125C146.758 34.7188 147.117 34.6562 147.398 34.625C147.711 34.5938 147.945 34.5781 148.102 34.5781C148.289 34.5781 148.414 34.5938 148.477 34.625C148.508 34.6875 148.523 34.8281 148.523 35.0469C148.523 35.2344 148.477 35.5938 148.383 36.125C148.289 36.6562 148.148 37.375 147.961 38.2812C147.773 39.1875 147.523 40.3594 147.211 41.7969C147.148 42.0781 147.086 42.3438 147.023 42.5938C146.992 42.8125 146.945 43.0469 146.883 43.2969C146.852 43.5156 146.805 43.7812 146.742 44.0938C146.68 44.4062 146.602 44.7969 146.508 45.2656C146.477 45.5469 146.461 45.8594 146.461 46.2031C146.492 46.5156 146.555 46.8125 146.648 47.0938C146.742 47.375 146.883 47.6094 147.07 47.7969C147.289 47.9531 147.586 48.0312 147.961 48.0312C148.273 48.0312 148.68 47.8438 149.18 47.4688C149.68 47.0625 150.211 46.5625 150.773 45.9688C151.336 45.3438 151.914 44.6719 152.508 43.9531C153.133 43.2031 153.711 42.4844 154.242 41.7969C154.773 41.1094 155.242 40.5 155.648 39.9688C156.086 39.4375 156.398 39.0469 156.586 38.7969C156.836 38.5156 157.086 38.3594 157.336 38.3281C157.586 38.2656 157.773 38.3281 157.898 38.5156C158.023 38.7031 158.039 38.9844 157.945 39.3594C157.883 39.7344 157.664 40.1719 157.289 40.6719ZM143.555 42.7344C143.711 42.1094 143.898 41.375 144.117 40.5312C144.336 39.6875 144.523 38.875 144.68 38.0938C144.836 37.3125 144.945 36.6719 145.008 36.1719C145.102 35.6406 145.086 35.3906 144.961 35.4219C144.805 35.4531 144.633 35.5 144.445 35.5625C144.289 35.625 144.086 35.6719 143.836 35.7031C143.586 35.7344 143.336 35.7812 143.086 35.8438C143.336 35.3438 143.477 34.9375 143.508 34.625C143.57 34.2812 143.586 34.0156 143.555 33.8281C143.523 33.6094 143.461 33.4375 143.367 33.3125C143.023 33.0312 142.414 33.2656 141.539 34.0156C140.695 34.7344 139.711 36.0781 138.586 38.0469C138.117 38.8594 137.742 39.7344 137.461 40.6719C137.18 41.5781 136.977 42.4375 136.852 43.25C136.758 44.0625 136.742 44.7812 136.805 45.4062C136.867 46 136.992 46.3906 137.18 46.5781C137.523 46.9219 137.914 47.0938 138.352 47.0938C138.789 47.0625 139.227 46.9375 139.664 46.7188C140.133 46.4688 140.586 46.1562 141.023 45.7812C141.492 45.4062 141.898 45.0156 142.242 44.6094C142.617 44.2031 142.914 43.8281 143.133 43.4844C143.383 43.1406 143.523 42.8906 143.555 42.7344ZM175.992 47.8438C175.992 47.1875 176.055 46.4375 176.18 45.5938C176.336 44.75 176.523 43.8906 176.742 43.0156C176.961 42.1094 177.18 41.2344 177.398 40.3906C177.617 39.5469 177.805 38.7969 177.961 38.1406C178.148 37.3281 178.133 36.7031 177.914 36.2656C177.695 35.8281 177.32 35.6094 176.789 35.6094C176.539 35.6094 176.039 35.8281 175.289 36.2656C174.57 36.7031 173.773 37.4688 172.898 38.5625C172.055 39.625 171.211 41.0781 170.367 42.9219C169.555 44.7344 168.914 47.0469 168.445 49.8594C167.852 50.1719 167.289 50.375 166.758 50.4688C166.477 50.5312 166.227 50.5781 166.008 50.6094C165.383 50.6406 164.977 50.5312 164.789 50.2812C164.602 50.0625 164.633 49.5 164.883 48.5938C165.008 48.1562 165.227 47.4531 165.539 46.4844C165.883 45.5156 166.211 44.4688 166.523 43.3438C166.836 42.1875 167.102 41.0469 167.32 39.9219C167.57 38.7656 167.695 37.7656 167.695 36.9219C167.695 36.3281 167.586 35.9219 167.367 35.7031C167.18 35.4844 166.898 35.375 166.523 35.375C166.242 35.375 165.773 35.5312 165.117 35.8438C164.461 36.1562 163.727 36.7656 162.914 37.6719C162.102 38.5781 161.289 39.8438 160.477 41.4688C159.695 43.0625 159.023 45.1406 158.461 47.7031V47.6094C158.398 47.8594 158.336 48.1094 158.273 48.3594C158.211 48.5781 158.164 48.8125 158.133 49.0625C158.102 49.3125 158.055 49.5469 157.992 49.7656L155.648 50.7969C155.492 50.8594 155.289 50.9062 155.039 50.9375C154.82 50.9688 154.602 50.9219 154.383 50.7969C154.195 50.7031 154.055 50.4844 153.961 50.1406C153.867 49.7969 153.898 49.2812 154.055 48.5938L157.008 36.3594C157.102 35.9531 157.18 35.5625 157.242 35.1875C157.305 34.8438 157.336 34.5156 157.336 34.2031C157.367 33.8594 157.352 33.5781 157.289 33.3594C157.82 33.1094 158.289 32.9219 158.695 32.7969C159.102 32.6719 159.43 32.5781 159.68 32.5156C159.992 32.4219 160.258 32.375 160.477 32.375C161.477 32.375 161.805 33.2344 161.461 34.9531C161.336 35.4531 161.148 36.1875 160.898 37.1562C161.492 36.4062 162.117 35.7031 162.773 35.0469C163.461 34.3594 164.148 33.75 164.836 33.2188C165.523 32.6875 166.211 32.2656 166.898 31.9531C167.617 31.6406 168.32 31.4844 169.008 31.4844C169.539 31.4844 169.977 31.6406 170.32 31.9531C170.695 32.2656 170.977 32.6875 171.164 33.2188C171.383 33.7188 171.508 34.3281 171.539 35.0469C171.57 35.7344 171.539 36.4531 171.445 37.2031C171.945 36.5469 172.492 35.8906 173.086 35.2344C173.711 34.5469 174.352 33.9375 175.008 33.4062C175.695 32.875 176.398 32.4375 177.117 32.0938C177.836 31.75 178.555 31.5781 179.273 31.5781C180.117 31.5781 180.758 31.8281 181.195 32.3281C181.664 32.8281 181.977 33.4688 182.133 34.25C182.32 35.0312 182.367 35.875 182.273 36.7812C182.211 37.6875 182.086 38.5625 181.898 39.4062L180.305 45.7344C179.961 47.2969 180.289 48.0781 181.289 48.0781C182.07 48.0781 182.93 47.7031 183.867 46.9531C184.805 46.2031 185.711 45.3125 186.586 44.2812C187.492 43.25 188.336 42.1875 189.117 41.0938C189.898 40 190.555 39.125 191.086 38.4688C191.273 38.25 191.461 38.125 191.648 38.0938C191.867 38.0625 192.039 38.1094 192.164 38.2344C192.32 38.3281 192.398 38.5 192.398 38.75C192.43 39 192.352 39.3125 192.164 39.6875C191.539 40.7812 190.773 42 189.867 43.3438C188.961 44.6562 187.961 45.8906 186.867 47.0469C185.805 48.2031 184.664 49.1719 183.445 49.9531C182.227 50.7344 180.961 51.125 179.648 51.125C179.211 51.125 178.773 51.0781 178.336 50.9844C177.93 50.8906 177.539 50.7188 177.164 50.4688C176.82 50.2188 176.539 49.8906 176.32 49.4844C176.102 49.0469 175.992 48.5 175.992 47.8438ZM199.336 23.1406C198.867 25.0156 198.336 26.8125 197.742 28.5312C197.18 30.2188 196.586 31.8125 195.961 33.3125C195.367 34.7812 194.758 36.125 194.133 37.3438C193.539 38.5625 193.008 39.625 192.539 40.5312C192.227 42.7812 192.227 44.5938 192.539 45.9688C192.852 47.3438 193.461 48.0312 194.367 48.0312C195.117 48.0312 195.852 47.6875 196.57 47C197.289 46.3125 197.93 45.4688 198.492 44.4688C199.055 43.4688 199.523 42.4062 199.898 41.2812C200.305 40.125 200.555 39.0938 200.648 38.1875C200.055 38.0312 199.555 37.7656 199.148 37.3906C198.742 36.9844 198.539 36.4531 198.539 35.7969C198.539 35.3594 198.664 34.9531 198.914 34.5781C199.164 34.1719 199.461 33.8281 199.805 33.5469C200.148 33.2656 200.523 33.0469 200.93 32.8906C201.336 32.7344 201.711 32.6562 202.055 32.6562C202.586 32.6562 203.039 33 203.414 33.6875C203.789 34.3438 204.039 35.1875 204.164 36.2188C205.414 36.1875 206.727 36 208.102 35.6562C209.477 35.3125 210.773 34.875 211.992 34.3438C212.336 34.1875 212.617 34.1406 212.836 34.2031C213.055 34.2656 213.195 34.3906 213.258 34.5781C213.352 34.7656 213.352 34.9844 213.258 35.2344C213.164 35.4531 212.977 35.625 212.695 35.75C211.977 36.1562 211.227 36.5312 210.445 36.875C209.695 37.1875 208.945 37.4531 208.195 37.6719C207.445 37.8906 206.727 38.0625 206.039 38.1875C205.352 38.3125 204.727 38.375 204.164 38.375C204.039 39.625 203.648 40.9844 202.992 42.4531C202.336 43.8906 201.539 45.2344 200.602 46.4844C199.664 47.7031 198.617 48.7188 197.461 49.5312C196.336 50.3438 195.227 50.75 194.133 50.75C193.789 50.75 193.336 50.7031 192.773 50.6094C192.211 50.5156 191.664 50.1875 191.133 49.625C190.602 49.0625 190.148 48.1719 189.773 46.9531C189.398 45.7031 189.242 43.9375 189.305 41.6562C189.336 40.125 189.508 38.5 189.82 36.7812C190.133 35.0625 190.508 33.3438 190.945 31.625C191.383 29.9062 191.867 28.25 192.398 26.6562C192.961 25.0312 193.492 23.5781 193.992 22.2969C194.492 20.9844 194.945 19.8906 195.352 19.0156C195.789 18.1406 196.117 17.5781 196.336 17.3281C196.617 16.9844 196.945 16.7344 197.32 16.5781C197.695 16.3906 198.055 16.2656 198.398 16.2031C198.773 16.1094 199.117 16.0781 199.43 16.1094C199.742 16.1406 199.961 16.1875 200.086 16.25C200.273 16.375 200.32 17.0625 200.227 18.3125C200.164 19.5625 199.867 21.1719 199.336 23.1406ZM218.836 22.3906C218.742 22.7344 218.555 23.0781 218.273 23.4219C218.023 23.7344 217.727 24 217.383 24.2188C217.07 24.4062 216.742 24.5312 216.398 24.5938C216.055 24.6562 215.773 24.5938 215.555 24.4062C214.898 23.9062 214.555 23.375 214.523 22.8125C214.492 22.2188 214.633 21.6719 214.945 21.1719C215.258 20.6406 215.648 20.2031 216.117 19.8594C216.586 19.4844 216.992 19.2656 217.336 19.2031C217.68 19.1406 217.961 19.2188 218.18 19.4375C218.43 19.625 218.617 19.8906 218.742 20.2344C218.867 20.5469 218.93 20.9062 218.93 21.3125C218.961 21.7188 218.93 22.0781 218.836 22.3906ZM212.367 32.375C212.523 32.1875 212.82 32.0312 213.258 31.9062C213.695 31.7812 214.148 31.6875 214.617 31.625C215.086 31.5312 215.508 31.4844 215.883 31.4844C216.289 31.4531 216.523 31.4531 216.586 31.4844C216.617 31.5156 216.539 31.8438 216.352 32.4688C216.164 33.0938 215.93 33.8281 215.648 34.6719C215.367 35.5156 215.07 36.3906 214.758 37.2969C214.445 38.1719 214.211 38.8906 214.055 39.4531C213.898 40.0156 213.711 40.6562 213.492 41.375C213.273 42.0625 213.07 42.75 212.883 43.4375C212.727 44.0938 212.617 44.7188 212.555 45.3125C212.492 45.9062 212.539 46.3594 212.695 46.6719C212.852 47.0469 213.023 47.3125 213.211 47.4688C213.398 47.5938 213.602 47.6562 213.82 47.6562C214.445 47.6562 215.227 47.3125 216.164 46.625C217.133 45.9375 218.102 45.125 219.07 44.1875C220.07 43.2188 220.992 42.25 221.836 41.2812C222.68 40.2812 223.305 39.4844 223.711 38.8906C223.961 38.5781 224.211 38.375 224.461 38.2812C224.742 38.1875 224.961 38.2031 225.117 38.3281C225.305 38.4531 225.398 38.6562 225.398 38.9375C225.43 39.2188 225.336 39.5469 225.117 39.9219C224.617 40.7969 223.883 41.8438 222.914 43.0625C221.945 44.25 220.914 45.4062 219.82 46.5312C218.727 47.625 217.648 48.5625 216.586 49.3438C215.555 50.125 214.711 50.5312 214.055 50.5625C213.523 50.5938 212.992 50.5 212.461 50.2812C211.961 50.0938 211.492 49.8281 211.055 49.4844C210.648 49.1094 210.305 48.6875 210.023 48.2188C209.742 47.7188 209.586 47.2031 209.555 46.6719C209.461 45.8906 209.461 44.8281 209.555 43.4844C209.648 42.1094 209.82 40.7188 210.07 39.3125C210.32 37.875 210.633 36.5156 211.008 35.2344C211.414 33.9531 211.867 33 212.367 32.375ZM245.742 40.6719C245.305 41.2969 244.742 42.0781 244.055 43.0156C243.367 43.9219 242.648 44.8438 241.898 45.7812C241.18 46.6875 240.461 47.5312 239.742 48.3125C239.055 49.0625 238.477 49.5938 238.008 49.9062C237.695 50.0938 237.336 50.25 236.93 50.375C236.523 50.5 236.102 50.5781 235.664 50.6094C235.258 50.6406 234.867 50.6094 234.492 50.5156C234.117 50.4531 233.789 50.3281 233.508 50.1406C233.227 49.9219 232.992 49.6094 232.805 49.2031C232.648 48.8594 232.492 48.4062 232.336 47.8438C232.211 47.2812 232.164 46.5781 232.195 45.7344C231.445 46.9844 230.617 47.9531 229.711 48.6406C228.805 49.2969 227.945 49.7812 227.133 50.0938C226.195 50.4375 225.258 50.6406 224.32 50.7031C223.883 50.7031 223.414 50.5469 222.914 50.2344C222.414 49.9531 221.992 49.5 221.648 48.875C221.305 48.2188 221.086 47.3906 220.992 46.3906C220.898 45.3594 221.023 44.1406 221.367 42.7344C221.805 40.8281 222.492 39.0938 223.43 37.5312C224.398 35.9688 225.445 34.6406 226.57 33.5469C227.695 32.4219 228.805 31.5781 229.898 31.0156C230.992 30.4531 231.898 30.2031 232.617 30.2656C233.461 30.4219 234.148 30.6719 234.68 31.0156C235.117 31.3281 235.398 31.7969 235.523 32.4219C235.68 33.0156 235.43 33.8125 234.773 34.8125C235.211 34.7188 235.57 34.6562 235.852 34.625C236.164 34.5938 236.398 34.5781 236.555 34.5781C236.742 34.5781 236.867 34.5938 236.93 34.625C236.961 34.6875 236.977 34.8281 236.977 35.0469C236.977 35.2344 236.93 35.5938 236.836 36.125C236.742 36.6562 236.602 37.375 236.414 38.2812C236.227 39.1875 235.977 40.3594 235.664 41.7969C235.602 42.0781 235.539 42.3438 235.477 42.5938C235.445 42.8125 235.398 43.0469 235.336 43.2969C235.305 43.5156 235.258 43.7812 235.195 44.0938C235.133 44.4062 235.055 44.7969 234.961 45.2656C234.93 45.5469 234.914 45.8594 234.914 46.2031C234.945 46.5156 235.008 46.8125 235.102 47.0938C235.195 47.375 235.336 47.6094 235.523 47.7969C235.742 47.9531 236.039 48.0312 236.414 48.0312C236.727 48.0312 237.133 47.8438 237.633 47.4688C238.133 47.0625 238.664 46.5625 239.227 45.9688C239.789 45.3438 240.367 44.6719 240.961 43.9531C241.586 43.2031 242.164 42.4844 242.695 41.7969C243.227 41.1094 243.695 40.5 244.102 39.9688C244.539 39.4375 244.852 39.0469 245.039 38.7969C245.289 38.5156 245.539 38.3594 245.789 38.3281C246.039 38.2656 246.227 38.3281 246.352 38.5156C246.477 38.7031 246.492 38.9844 246.398 39.3594C246.336 39.7344 246.117 40.1719 245.742 40.6719ZM232.008 42.7344C232.164 42.1094 232.352 41.375 232.57 40.5312C232.789 39.6875 232.977 38.875 233.133 38.0938C233.289 37.3125 233.398 36.6719 233.461 36.1719C233.555 35.6406 233.539 35.3906 233.414 35.4219C233.258 35.4531 233.086 35.5 232.898 35.5625C232.742 35.625 232.539 35.6719 232.289 35.7031C232.039 35.7344 231.789 35.7812 231.539 35.8438C231.789 35.3438 231.93 34.9375 231.961 34.625C232.023 34.2812 232.039 34.0156 232.008 33.8281C231.977 33.6094 231.914 33.4375 231.82 33.3125C231.477 33.0312 230.867 33.2656 229.992 34.0156C229.148 34.7344 228.164 36.0781 227.039 38.0469C226.57 38.8594 226.195 39.7344 225.914 40.6719C225.633 41.5781 225.43 42.4375 225.305 43.25C225.211 44.0625 225.195 44.7812 225.258 45.4062C225.32 46 225.445 46.3906 225.633 46.5781C225.977 46.9219 226.367 47.0938 226.805 47.0938C227.242 47.0625 227.68 46.9375 228.117 46.7188C228.586 46.4688 229.039 46.1562 229.477 45.7812C229.945 45.4062 230.352 45.0156 230.695 44.6094C231.07 44.2031 231.367 43.8281 231.586 43.4844C231.836 43.1406 231.977 42.8906 232.008 42.7344ZM241.898 49.25C243.273 43.4688 244.367 38.8281 245.18 35.3281C246.023 31.8281 246.664 29.1562 247.102 27.3125C247.602 25.125 247.945 23.6094 248.133 22.7656C248.227 22.1719 248.305 21.5938 248.367 21.0312C248.43 20.5312 248.461 20.0156 248.461 19.4844C248.461 18.9531 248.414 18.4688 248.32 18.0312C248.57 17.875 248.836 17.75 249.117 17.6562C249.43 17.5625 249.727 17.4844 250.008 17.4219C250.352 17.3281 250.695 17.25 251.039 17.1875C251.383 17.125 251.695 17.0938 251.977 17.0938C252.227 17.0938 252.461 17.125 252.68 17.1875C252.898 17.2188 253.039 17.3125 253.102 17.4688C253.289 17.625 253.367 17.9375 253.336 18.4062C253.336 18.875 253.305 19.3594 253.242 19.8594C253.117 20.4531 252.977 21.0938 252.82 21.7812C252.445 23.125 251.93 25.0625 251.273 27.5938C250.711 29.75 249.945 32.6875 248.977 36.4062C248.039 40.125 246.852 44.8125 245.414 50.4688C245.258 50.625 245.07 50.7344 244.852 50.7969C244.633 50.8594 244.43 50.8906 244.242 50.8906C244.023 50.8906 243.789 50.875 243.539 50.8438C243.32 50.7812 243.102 50.6875 242.883 50.5625C242.695 50.4375 242.508 50.2656 242.32 50.0469C242.133 49.8594 241.992 49.5938 241.898 49.25ZM266.977 42.5469C266.664 43.7344 266.242 44.8438 265.711 45.875C265.18 46.9062 264.539 47.7969 263.789 48.5469C263.07 49.2969 262.242 49.875 261.305 50.2812C260.398 50.7188 259.398 50.9375 258.305 50.9375C257.023 50.9375 256.008 50.6562 255.258 50.0938C254.539 49.5625 253.992 48.8906 253.617 48.0781C253.273 47.2656 253.07 46.375 253.008 45.4062C252.914 44.4375 252.867 43.5312 252.867 42.6875C252.867 42.0938 252.945 41.4375 253.102 40.7188C253.227 40 253.414 39.2656 253.664 38.5156C253.914 37.7656 254.227 37.0156 254.602 36.2656C255.008 35.5156 255.477 34.8281 256.008 34.2031C256.195 33.6719 256.477 33.2031 256.852 32.7969C257.258 32.3906 257.711 32.0625 258.211 31.8125C258.742 31.5312 259.305 31.3281 259.898 31.2031C260.492 31.0469 261.07 30.9688 261.633 30.9688C261.727 30.9688 261.805 30.9844 261.867 31.0156C261.961 31.0469 262.055 31.0781 262.148 31.1094C262.555 31.1406 263.055 31.2969 263.648 31.5781C264.273 31.8594 264.867 32.2812 265.43 32.8438C266.023 33.4062 266.523 34.125 266.93 35C267.336 35.8438 267.539 36.875 267.539 38.0938C267.539 38.3438 267.523 38.6562 267.492 39.0312C267.461 39.375 267.43 39.6719 267.398 39.9219C268.117 39.6406 268.867 39.2969 269.648 38.8906C270.43 38.4844 271.18 38.0625 271.898 37.625C272.648 37.1562 273.336 36.6875 273.961 36.2188C274.586 35.75 275.086 35.3281 275.461 34.9531C275.773 34.6719 276.039 34.5156 276.258 34.4844C276.477 34.4531 276.633 34.5156 276.727 34.6719C276.82 34.8281 276.836 35.0469 276.773 35.3281C276.711 35.6094 276.539 35.9219 276.258 36.2656C276.102 36.4531 275.695 36.8281 275.039 37.3906C274.414 37.9531 273.664 38.5625 272.789 39.2188C271.914 39.875 270.961 40.5156 269.93 41.1406C268.898 41.7656 267.914 42.2344 266.977 42.5469ZM259.055 35.4219C258.961 35.7031 258.914 36 258.914 36.3125C258.914 36.8125 258.945 37.3438 259.008 37.9062C259.07 38.4375 259.227 38.9219 259.477 39.3594C259.727 39.7969 260.117 40.1719 260.648 40.4844C261.211 40.7656 261.977 40.9062 262.945 40.9062C263.102 40.9062 263.258 40.9062 263.414 40.9062C263.57 40.875 263.727 40.8438 263.883 40.8125C263.977 40.4062 264.055 40.0469 264.117 39.7344C264.211 39.3906 264.258 39.0938 264.258 38.8438C264.32 38.25 264.32 37.6406 264.258 37.0156C264.195 36.3906 264.07 35.8281 263.883 35.3281C263.727 34.7969 263.508 34.375 263.227 34.0625C262.977 33.7188 262.664 33.5469 262.289 33.5469C261.695 33.5469 261.117 33.7188 260.555 34.0625C260.023 34.375 259.523 34.8281 259.055 35.4219ZM256.055 43.6719C256.055 44.2344 256.086 44.7969 256.148 45.3594C256.211 45.8906 256.336 46.375 256.523 46.8125C256.711 47.2188 256.961 47.5625 257.273 47.8438C257.586 48.0938 257.992 48.2188 258.492 48.2188C259.055 48.2188 259.57 48.0938 260.039 47.8438C260.508 47.5625 260.93 47.2188 261.305 46.8125C261.68 46.375 262.008 45.8906 262.289 45.3594C262.602 44.7969 262.867 44.2188 263.086 43.625C262.867 43.6562 262.648 43.6875 262.43 43.7188C262.242 43.7188 262.023 43.7188 261.773 43.7188C260.586 43.7188 259.555 43.375 258.68 42.6875C257.836 41.9688 257.18 41.0625 256.711 39.9688C256.523 40.625 256.367 41.2656 256.242 41.8906C256.117 42.5156 256.055 43.1094 256.055 43.6719ZM266.18 21.6406C266.461 21.4219 266.773 21.4375 267.117 21.6875C267.461 21.9375 267.711 22.3125 267.867 22.8125C268.086 23.4688 268.102 23.9688 267.914 24.3125C267.727 24.625 267.445 24.9062 267.07 25.1562C266.883 25.3125 266.523 25.5312 265.992 25.8125C265.492 26.0938 264.93 26.3906 264.305 26.7031C263.711 26.9844 263.117 27.25 262.523 27.5C261.93 27.7188 261.477 27.8438 261.164 27.875C260.82 27.9062 260.555 27.875 260.367 27.7812C260.18 27.6562 260.023 27.5156 259.898 27.3594C259.805 27.2031 259.742 27.0312 259.711 26.8438C259.68 26.625 259.664 26.4375 259.664 26.2812C262.102 24.5938 263.805 23.3906 264.773 22.6719C265.336 22.2656 265.805 21.9219 266.18 21.6406Z" fill="black"/>
</svg>
