<svg width="120" height="123" viewBox="0 0 120 123" fill="none" xmlns="http://www.w3.org/2000/svg">
<path d="M118 61.4008C118 94.2507 91.9893 120.802 60 120.802C28.0107 120.802 2 94.2507 2 61.4008C2 28.5509 28.0107 2 60 2C91.9893 2 118 28.5509 118 61.4008Z" fill="white" stroke="black" stroke-width="4"/>
<path d="M60 74.5906C72.7653 74.5906 83.1111 63.7996 83.1111 50.4851C83.1111 37.1706 72.7653 26.3796 60 26.3796C47.2347 26.3796 36.8889 37.1706 36.8889 50.4851C36.8889 63.7996 47.2347 74.5906 60 74.5906ZM76.1778 80.617H73.1625C69.1541 82.5379 64.6944 83.6302 60 83.6302C55.3055 83.6302 50.8639 82.5379 46.8375 80.617H43.8222C30.425 80.617 19.5555 91.9541 19.5555 105.928L28 111.431C34.6667 115.07 44.8889 118.253 51.1111 120.982H66.6666C78.2222 118.708 78.2222 118.708 92 111.431L100.444 105.928C100.444 91.9541 89.575 80.617 76.1778 80.617Z" fill="#525252"/>
<path d="M118 61.4008C118 94.2507 91.9893 120.802 60 120.802C28.0107 120.802 2 94.2507 2 61.4008C2 28.5509 28.0107 2 60 2C91.9893 2 118 28.5509 118 61.4008Z" stroke="black" stroke-width="4"/>
</svg>
