<svg width="72" height="72" viewBox="0 0 72 72" fill="none" xmlns="http://www.w3.org/2000/svg">
<mask id="path-1-outside-1_409_369" maskUnits="userSpaceOnUse" x="0" y="0" width="43" height="42" fill="black">
<rect fill="white" width="43" height="42"/>
<path fill-rule="evenodd" clip-rule="evenodd" d="M41.7077 36.25C42.3157 35 22.7078 1 21.3562 1C20.0045 1 0.659545 34.8123 1.00456 36.25C1.34957 37.6877 9.50452 41 21.5045 41C33.5045 41 41.0997 37.5 41.7077 36.25ZM37.9975 34.0812C38.3933 33.05 22.3844 5 21.5045 5C20.6247 5 10.784 35.3996 11.0085 36.5857C11.2331 37.7718 17.0353 38 24.8465 38C32.6578 38 37.6018 35.1125 37.9975 34.0812Z"/>
</mask>
<path fill-rule="evenodd" clip-rule="evenodd" d="M41.7077 36.25C42.3157 35 22.7078 1 21.3562 1C20.0045 1 0.659545 34.8123 1.00456 36.25C1.34957 37.6877 9.50452 41 21.5045 41C33.5045 41 41.0997 37.5 41.7077 36.25ZM37.9975 34.0812C38.3933 33.05 22.3844 5 21.5045 5C20.6247 5 10.784 35.3996 11.0085 36.5857C11.2331 37.7718 17.0353 38 24.8465 38C32.6578 38 37.6018 35.1125 37.9975 34.0812Z" fill="#0072BB"/>
<path d="M1.00456 36.25L1.97695 36.0166L1.00456 36.25ZM11.0085 36.5857L10.026 36.7718L10.026 36.7718L11.0085 36.5857ZM21.3562 2C21.1349 2 20.9866 1.92046 20.9529 1.90199C20.9042 1.87536 20.8825 1.8553 20.8925 1.86366C20.9116 1.87972 20.9659 1.93113 21.0609 2.03988C21.2461 2.25197 21.5033 2.58633 21.8293 3.04376C22.4769 3.95242 23.3393 5.26635 24.3455 6.86476C26.3551 10.0571 28.9069 14.3343 31.4007 18.656C33.8944 22.9777 36.324 27.3331 38.0899 30.6814C38.974 32.3577 39.6851 33.769 40.1541 34.7929C40.39 35.308 40.5548 35.7037 40.6498 35.9768C40.6983 36.1162 40.7184 36.1949 40.7245 36.2267C40.7276 36.2429 40.7219 36.2211 40.7216 36.174C40.7214 36.1434 40.7207 35.993 40.8085 35.8126L42.607 36.6874C42.7138 36.4679 42.7222 36.2625 42.7216 36.1613C42.7208 36.0437 42.7051 35.9359 42.6889 35.8511C42.6564 35.6809 42.6007 35.4977 42.5387 35.3195C42.4126 34.9572 42.2171 34.4942 41.9724 33.96C41.4802 32.8853 40.7486 31.4353 39.8589 29.7483C38.0771 26.37 35.6341 21.991 33.133 17.6565C30.6318 13.322 28.0662 9.02099 26.0381 5.7993C25.0255 4.19068 24.1391 2.8386 23.458 1.883C23.1197 1.4083 22.8176 1.01097 22.5674 0.724406C22.4446 0.58382 22.3122 0.444167 22.1779 0.331488C22.1112 0.275472 22.0211 0.206629 21.9126 0.147307C21.8191 0.0961457 21.6196 0 21.3562 0V2ZM1.97695 36.0166C2.01035 36.1558 1.99795 36.2566 1.99696 36.2658C1.99448 36.289 1.9923 36.2913 1.99892 36.2648C2.01211 36.2121 2.0418 36.1168 2.09719 35.9698C2.20656 35.6795 2.38447 35.2701 2.62978 34.7475C3.11818 33.7071 3.84206 32.2849 4.73255 30.6038C6.51166 27.2451 8.93366 22.8944 11.4111 18.5842C13.8887 14.2737 16.416 10.014 18.4051 6.83622C19.4011 5.24507 20.2543 3.93787 20.8952 3.03415C21.2178 2.57916 21.4722 2.24702 21.6554 2.0366C21.7493 1.92869 21.8027 1.87816 21.821 1.86282C21.8305 1.85485 21.8083 1.87525 21.7592 1.90211C21.7245 1.92104 21.5766 2 21.3562 2V0C21.0935 0 20.8946 0.0954649 20.8004 0.146913C20.6917 0.206286 20.6015 0.275209 20.5348 0.331259C20.4006 0.443957 20.2687 0.583467 20.1468 0.723557C19.8982 1.00913 19.5987 1.40484 19.2638 1.87722C18.5893 2.82822 17.7121 4.17384 16.7098 5.77506C14.7024 8.98201 12.1616 13.2653 9.67713 17.5875C7.1925 21.9102 4.75847 26.2821 2.96519 29.6676C2.06949 31.3585 1.32809 32.8138 0.819322 33.8977C0.566041 34.4372 0.362396 34.9016 0.225634 35.2646C0.157962 35.4442 0.0984481 35.6204 0.05859 35.7799C0.0386821 35.8596 0.019015 35.9533 0.00837541 36.0525C-0.000777303 36.1378 -0.0120118 36.2992 0.0321715 36.4834L1.97695 36.0166ZM21.5045 40C15.5928 40 10.6453 39.1836 7.15476 38.2015C5.40623 37.7095 4.04607 37.1824 3.12177 36.7087C2.65713 36.4706 2.33023 36.26 2.12474 36.0923C1.87825 35.891 1.93927 35.8596 1.97695 36.0166L0.0321715 36.4834C0.156106 36.9998 0.547445 37.3864 0.859841 37.6415C1.21324 37.93 1.6738 38.2141 2.2097 38.4887C3.28649 39.0404 4.77975 39.6109 6.61308 40.1267C10.2862 41.1602 15.4163 42 21.5045 42V40ZM40.8085 35.8126C40.843 35.7416 40.8249 35.8138 40.5602 36.0108C40.3291 36.1828 39.9873 36.3936 39.5266 36.6293C38.608 37.0991 37.2863 37.6327 35.5936 38.1351C32.2124 39.1386 27.4094 40 21.5045 40V42C27.5996 42 32.5943 41.1114 36.1626 40.0524C37.9448 39.5235 39.3859 38.9477 40.4374 38.4098C40.9618 38.1416 41.4068 37.8739 41.7543 37.6152C42.0683 37.3815 42.4205 37.0709 42.607 36.6874L40.8085 35.8126ZM21.5045 6C21.2241 6 21.0403 5.87714 21.0166 5.86193C20.9875 5.84326 20.9677 5.82763 20.9581 5.8198C20.9528 5.81546 20.9489 5.81211 20.9466 5.81003C20.9442 5.80793 20.9429 5.80673 20.9428 5.80661C20.9427 5.80654 20.9457 5.80939 20.952 5.81597C20.9582 5.82245 20.9665 5.83147 20.9772 5.84342C20.9987 5.86763 21.0261 5.9001 21.0599 5.94211C21.1995 6.11561 21.3983 6.39066 21.6542 6.76831C22.1623 7.51789 22.8487 8.60196 23.6553 9.92073C25.2664 12.5545 27.332 16.0832 29.3602 19.6484C31.3885 23.2137 33.3742 26.8062 34.8261 29.5676C35.5531 30.9503 36.1403 32.1133 36.5314 32.9564C36.7283 33.3807 36.8666 33.7051 36.9479 33.9278C36.9895 34.0417 37.0068 34.1037 37.0119 34.1262C37.0145 34.1379 37.0085 34.116 37.0059 34.0719C37.0044 34.0464 36.9951 33.9023 37.0639 33.7229L38.9312 34.4395C39.0124 34.2279 39.0074 34.0385 39.0025 33.9548C38.9965 33.8524 38.9793 33.7596 38.9632 33.688C38.9309 33.5438 38.8806 33.3898 38.8265 33.2416C38.7164 32.9401 38.5505 32.5561 38.3457 32.1148C37.9336 31.2265 37.3282 30.0289 36.5963 28.6369C35.1304 25.8488 33.133 22.2355 31.0986 18.6594C29.0641 15.0832 26.9872 11.535 25.3615 8.87712C24.5497 7.55009 23.8442 6.4347 23.3098 5.64627C23.0446 5.25491 22.8096 4.92631 22.6182 4.68842C22.525 4.57257 22.4224 4.45326 22.3179 4.35438C22.267 4.30615 22.1914 4.23944 22.0968 4.17874C22.0311 4.13656 21.8124 4 21.5045 4V6ZM11.9911 36.3997C12.0174 36.5388 11.9948 36.6208 12.008 36.5203C12.0154 36.4634 12.0311 36.3719 12.0587 36.2395C12.1134 35.977 12.2029 35.6091 12.3259 35.1431C12.571 34.2143 12.9367 32.9418 13.3879 31.4373C14.2895 28.431 15.5233 24.5283 16.7925 20.6598C18.062 16.7906 19.3639 12.9647 20.4016 10.1101C20.9213 8.68043 21.37 7.50768 21.7126 6.69837C21.8856 6.28976 22.0216 5.99734 22.1192 5.81673C22.1704 5.72172 22.1929 5.69186 22.188 5.69819C22.1871 5.69943 22.153 5.74498 22.0861 5.7992C22.0416 5.83518 21.834 6 21.5045 6V4C21.1475 4 20.908 4.17966 20.8275 4.24488C20.7244 4.32833 20.6501 4.4175 20.6047 4.4763C20.511 4.59773 20.4283 4.73872 20.3592 4.86666C20.216 5.13193 20.0507 5.49379 19.8708 5.91874C19.5077 6.77654 19.045 7.98803 18.5219 9.42682C17.4741 12.3093 16.1648 16.1574 14.8922 20.0363C13.6193 23.916 12.3801 27.8357 11.4722 30.8628C11.0187 32.3751 10.6456 33.6722 10.3921 34.6328C10.2657 35.1116 10.166 35.5185 10.1008 35.8316C10.0684 35.987 10.0415 36.1335 10.0248 36.2612C10.0138 36.3453 9.98563 36.5585 10.026 36.7718L11.9911 36.3997ZM24.8465 37C20.9405 37 17.5748 36.9426 15.1659 36.7411C13.9542 36.6398 13.0361 36.5058 12.4275 36.3416C12.1191 36.2584 11.9479 36.1823 11.8698 36.1344C11.7768 36.0774 11.9427 36.144 11.9911 36.3997L10.026 36.7718C10.1306 37.3239 10.5268 37.6571 10.8247 37.8396C11.1374 38.0313 11.5174 38.1676 11.9066 38.2726C12.6931 38.4847 13.7558 38.6302 14.9992 38.7342C17.5003 38.9433 20.9413 39 24.8465 39V37ZM37.0639 33.7229C37.0956 33.6404 37.1065 33.6735 36.953 33.8183C36.8206 33.9432 36.6161 34.1042 36.3302 34.2895C35.7604 34.659 34.928 35.0862 33.8508 35.4914C31.7001 36.3003 28.6305 37 24.8465 37V39C28.8738 39 32.1818 38.256 34.5549 37.3633C35.7395 36.9177 36.7056 36.4297 37.4182 35.9677C37.7735 35.7373 38.0812 35.5035 38.3254 35.2731C38.5486 35.0626 38.8005 34.7799 38.9312 34.4395L37.0639 33.7229Z" fill="#0072BB" mask="url(#path-1-outside-1_409_369)"/>
<path d="M46.6186 26.8413L29.9646 33.0865C29.9644 33.0866 29.9643 33.0866 29.9642 33.0867C29.964 33.0867 29.9639 33.0868 29.9637 33.0868C27.8763 33.8686 26.5 35.8729 26.5 38.0949V56.1204C26.5 58.1468 27.6465 59.9951 29.4512 60.8974L46.1035 69.2236C46.1043 69.2239 46.105 69.2243 46.1058 69.2247C47.6101 69.9815 49.3819 69.9815 50.8862 69.2247C50.887 69.2243 50.8877 69.2239 50.8885 69.2236L67.5374 60.8991C67.5379 60.8989 67.5383 60.8986 67.5388 60.8984C69.3593 59.9931 70.492 58.1321 70.492 56.1204V38.0949C70.492 35.8692 69.1123 33.8754 67.0282 33.0949C67.028 33.0948 67.0277 33.0947 67.0274 33.0945L50.3798 26.8517C49.1666 26.3825 47.8279 26.3866 46.6192 26.841C46.619 26.8411 46.6188 26.8412 46.6186 26.8413ZM37.1352 39.0819L48.5 34.8201L59.8648 39.0819L48.5 43.6989L37.1352 39.0819ZM62.375 54.3926L52.5625 59.2989V50.812L62.375 46.8256V54.3926Z" fill="#0072BB" stroke="white" stroke-width="3"/>
<path d="M38.3364 13.7266L43.252 9.27598C43.9262 8.66535 45.022 9.13509 45.022 10.0289V12.7672C45.022 12.7672 53.0043 11.5462 56.4965 14.3429C60.2628 17.359 59.9959 26 59.9959 26H55.4967C55.4967 26 56.218 19.5472 53.4971 17.2572C50.9746 15.1341 45.022 16.1919 45.022 16.1919V18.9306C45.022 19.828 43.9235 20.2916 43.252 19.6834L38.3364 15.2324C37.8875 14.8258 37.8882 14.1327 38.3364 13.7266Z" fill="#0072BB"/>
<path d="M25.6636 57.2734L20.748 61.724C20.0738 62.3346 18.978 61.8649 18.978 60.9711V58.2328C18.978 58.2328 10.9957 59.4538 7.50346 56.6571C3.73723 53.641 4.00411 45 4.00411 45H8.50327C8.50327 45 7.78202 51.4528 10.5029 53.7428C13.0254 55.8659 18.978 54.8081 18.978 54.8081V52.0694C18.978 51.172 20.0765 50.7084 20.748 51.3166L25.6636 55.7676C26.1125 56.1742 26.1118 56.8673 25.6636 57.2734Z" fill="#0072BB"/>
</svg>
